# xmcd
#
# Track frame offsets:
#	150
#	13452
#	25818
#	37069
#	50494
#	64535
#	77939
#	92040
#	104153
#	118371
#	131900
#	150908
#	164501
#	179100
#	205283
#
# Disc length: 3093 seconds
#
# Revision: 1
# Processed by: cddbd v1.5.2PL0 Copyright (c) Steve Scherf et al.
# Submitted via: EasyCDDAExtractor 16.0.8.1
#
DISCID=e00c130f
DTITLE=VARIOUS ARTIST - Jazz and Τζάζ 96 [Blues Classics]
DYEAR=2001
DGENRE=Blues
TTITLE0=Muddy Waters - Mannish Boy
TTITLE1=Howlin' Wolf - Spoonful
TTITLE2=Bo Diddley - Who Do You Love
TTITLE3=John Lee Hooker - One Bourbon,One Scottch,One Beer
TTITLE4=Little Walter - Blues With a Feeling
TTITLE5=Buddy Guy - Stone Crazy
TTITLE6=Sonny Boy Williamson - Help Me
TTITLE7=Little Walter - My Babe
TTITLE8=Bo Diddley - You Can't Judge a Book by its Cover
TTITLE9=Buddy Guy - My Time After a WhiLe
TTITLE10=Etta James - What You Want Me To Do
TTITLE11=Elmore James - Dust My Broom
TTITLE12=John Lee Hooker - Sugar Mama
TTITLE13=Howlin' Wolf - The Red Rooster
TTITLE14=Muddy Waters - The Same Thing
EXTD=YEAR: 2001 ID3G: 0
EXTT0=
EXTT1=
EXTT2=
EXTT3=
EXTT4=
EXTT5=
EXTT6=
EXTT7=
EXTT8=
EXTT9=
EXTT10=
EXTT11=
EXTT12=
EXTT13=
EXTT14=
PLAYORDER=
